<?xml version="1.0" standalone="no"?>
<!DOCTYPE svg PUBLIC "-//W3C//DTD SVG 20010904//EN"
 "http://www.w3.org/TR/2001/REC-SVG-20010904/DTD/svg10.dtd">
<svg version="1.0" xmlns="http://www.w3.org/2000/svg"
 width="370.000000pt" height="370.000000pt" viewBox="0 0 370.000000 370.000000"
 preserveAspectRatio="xMidYMid meet">
<metadata>
Created by potrace 1.11, written by Peter Selinger 2001-2013
</metadata>
<g transform="translate(0.000000,370.000000) scale(0.100000,-0.100000)"
fill="#000000" stroke="none">
<path d="M1689 3206 c-2 -2 -27 -6 -54 -10 -51 -6 -164 -33 -240 -57 -62 -21
-231 -105 -299 -151 -282 -189 -484 -473 -565 -793 -11 -44 -23 -100 -26 -125
-3 -25 -8 -58 -11 -74 -8 -46 -7 -235 0 -296 56 -435 297 -803 670 -1024 42
-25 80 -46 83 -46 4 0 29 -11 57 -24 64 -30 192 -73 241 -80 20 -4 40 -8 44
-10 39 -24 370 -26 497 -3 531 96 952 490 1083 1012 11 44 23 107 27 140 11
80 11 306 1 379 -20 142 -93 360 -154 458 -13 21 -23 40 -23 44 0 3 -25 43
-57 87 -110 159 -322 346 -488 430 -64 32 -171 77 -210 87 -16 5 -55 15 -85
23 -97 26 -195 37 -343 37 -79 0 -146 -2 -148 -4z"/>
</g>
</svg>
